<?xml version="1.0" encoding="UTF-8"?><svg id="Layer_2" xmlns="http://www.w3.org/2000/svg" width="61.1121" height="52" viewBox="0 0 61.1121 52"><defs><style>.cls-1{stroke-linejoin:round;}.cls-1,.cls-2{fill:none;stroke:#ffa550;stroke-linecap:round;stroke-width:2px;}.cls-2{stroke-miterlimit:10;}</style></defs><g id="Layer_2-2"><g id="Layer_1-2"><path class="cls-1" d="M30.6458,20.219c-.3973,1.7921-.7416,3.3339-1.0791,4.8773-.2298,1.0539-.4237,2.1166-.685,3.1627-.1322.5279-.012.797.5074.9994,1.8868.736,3.756,1.5192,5.6372,2.2693.821.3271,1.3114.9708,1.4285,1.7754.5383,3.6925,1.0281,7.3921,1.4984,11.0937.1423,1.1241-.3721,2.0471-1.2233,2.4541-.8751.4187-2.0222.2843-2.7267-.4297-.3223-.3271-.6119-.7929-.6894-1.2359-.2902-1.647-.4791-3.3116-.719-4.9677-.2096-1.4512-.4256-2.902-.6699-4.3478-.0353-.2074-.2071-.487-.3866-.5606-2.6807-1.1002-5.3407-2.2671-8.0749-3.2184-2.0351-.7076-3.0128-2.8658-2.5035-4.5392.8216-2.6996,1.3907-5.476,2.0584-8.2222.0711-.2931.0863-.5997.1435-1.0205-.6075.136-1.1213.2345-1.6259.3677-.9932.2622-1.9854.5282-2.9675.8276-.2229.068-.4514.2402-.594.4278-1.1011,1.4471-2.1878,2.9058-3.2672,4.3692-.8864,1.2019-2.2995,1.5003-3.4397.7086-1.0907-.7574-1.3035-2.3414-.4508-3.5055,1.3161-1.7971,2.62-3.6046,3.9899-5.3602.3255-.4174.8509-.7945,1.3561-.9374,2.7663-.7829,5.5346-1.5865,8.3463-2.1701,1.1685-.2424,2.4484.0123,3.6729.0998.7423.0529,1.4732.2669,2.2155.3223.8688.0648,1.4883.4763,1.9907,1.1468,1.2283,1.6382,2.4799,3.259,3.6893,4.911.323.4407.5861.5046,1.0785.255,1.2088-.6123,2.4365-1.1921,3.6862-1.7146,1.2591-.527,2.6115-.0277,3.1019,1.0634.5937,1.319.1146,2.6518-1.2163,3.2851-1.9895.9466-3.9758,1.9004-5.9917,2.7881-1.2258.5399-2.23.193-3.022-.8751-.967-1.3042-1.9454-2.5998-3.0685-4.0992l.0003-.0002Z"/><path class="cls-1" d="M5.3385,24.9059c.8682.4357,1.6659.82,2.449,1.2321,1.992,1.0482,3.9739,2.1157,5.9674,3.1617,1.0781.5657,1.2774,1.2472.6947,2.3203-.9639,1.7757-1.8931,3.57-2.8545,5.3473-.453.837-1.0838,1.0608-1.9252.6217-2.676-1.3961-5.3407-2.8151-7.9956-4.2509-.6903-.373-.8603-1.0108-.4649-1.7955.8285-1.6441,1.7071-3.2631,2.5687-4.8905.1914-.3617.3494-.7564.6104-1.0608.2282-.2663.5798-.4269.95-.6853h0Z"/><path class="cls-1" d="M19.341,33.4669c.5377.4184.9762.8603,1.5003,1.1433.7174.3875,1.4889.6843,2.2583.961.425.1527.5672.3441.4564.7923-.3929,1.5957-.7039,3.214-1.1616,4.7901-.1763.6072-.548,1.2623-1.0268,1.6586-2.0499,1.6958-4.1602,3.3191-6.2737,4.9359-1.1024.8433-2.5712.6337-3.3496-.4089-.8068-1.08-.5978-2.5542.4933-3.4142,1.6079-1.2676,3.2108-2.5419,4.838-3.7847.5323-.4067.8846-.8773,1.0353-1.5362.3834-1.6769.7989-3.3465,1.2302-5.1373h0Z"/><path class="cls-1" d="M34.891,5.6368c-.0176,2.7021-2.06,4.5827-4.6053,4.549-2.6625-.0346-4.5052-2.0527-4.5348-4.651-.0321-2.8284,2.4516-4.6069,4.6947-4.5326,2.5158.0831,4.4788,2.0814,4.4454,4.6346Z"/><polyline class="cls-1" points="25.7506 51 43.1479 51 43.1479 40.8397 56.6195 40.8397 56.6195 31.3574"/><line class="cls-2" x1="59.0276" y1="25.7705" x2="44.1956" y2="25.7705"/><polyline class="cls-2" points="57.4312 28.6925 59.8204 25.7705 57.4312 22.8484"/></g></g></svg>