<?xml version="1.0" encoding="UTF-8"?><svg id="Layer_2" xmlns="http://www.w3.org/2000/svg" width="52.0523" height="52" viewBox="0 0 52.0523 52"><defs><style>.cls-1{fill:none;stroke:#ffa550;stroke-miterlimit:10;stroke-width:2px;}</style></defs><g id="Layer_2-2"><g id="Layer_1-2"><path class="cls-1" d="M26.0261,22.5358c3.1972,0,5.7981-2.6017,5.7981-5.7981s-2.6008-5.7981-5.7981-5.7981-5.7981,2.6017-5.7981,5.7981,2.6008,5.7981,5.7981,5.7981Z"/><path class="cls-1" d="M25.8795,46.355l12.7069-18.3525c4.7661-6.3539,4.0769-16.7979-1.4751-22.3491-3.0001-3.001-6.9891-4.6534-11.2317-4.6534s-8.2317,1.6524-11.2317,4.6526c-5.5521,5.5512-6.2412,15.9952-1.4943,22.3243l12.726,18.3782h0Z"/><path class="cls-1" d="M36.6471,39.3745c9.3991,1.1066,14.4052,4.0882,14.4052,5.8159,0,2.4258-9.5207,5.8096-25.0261,5.8096S1,47.6162,1,45.1904c0-1.7277,5.0061-4.7094,14.4052-5.8159"/></g></g></svg>