<?xml version="1.0" encoding="UTF-8"?><svg id="Layer_2" xmlns="http://www.w3.org/2000/svg" width="62.204" height="52" viewBox="0 0 62.204 52"><defs><style>.cls-1{stroke-miterlimit:10;}.cls-1,.cls-2{fill:none;stroke:#ffa550;stroke-width:2px;}.cls-2{stroke-linejoin:round;}</style></defs><g id="Layer_2-2"><polyline class="cls-2" points="17.0764 14.6433 11.2735 18.8593 13.49 12.0376 7.6872 7.8216 14.8599 7.8216 17.0764 1 19.2928 7.8216 24.4015 7.8216"/><polyline class="cls-2" points="43.9761 14.6433 49.7789 18.8593 47.5625 12.0376 53.3653 7.8216 46.1926 7.8216 43.9761 1 41.7596 7.8216 36.624 7.8216"/><polygon class="cls-2" points="30.3227 4.8908 32.8261 12.5957 40.9276 12.5957 34.3734 17.3576 36.8769 25.0625 30.3227 20.3006 23.7685 25.0625 26.2719 17.3576 19.7177 12.5957 27.8192 12.5957 30.3227 4.8908"/><path class="cls-1" d="M1.3129,49.1606s6.1975-18.3586,21.9835-16.9554l15.786,1.4032s-.3114,1.7526-3.545,2.8267c-2.5016.8309-7.5077,1.1043-10.721.7983,0,0,6.5061,7.5435,19.5018.0798,6.8952-3.9601,11.0639-7.2003,14.8767-7.3297,2.9955-.1017,1.754.8185,1.754.8185,0,0-10.9068,13.3942-22.2174,17.657-13.9946,5.2743-37.4188.7016-37.4188.7016Z"/></g></svg>